<svg xmlns="http://www.w3.org/2000/svg" xmlns:xlink="http://www.w3.org/1999/xlink" width="160" zoomAndPan="magnify" viewBox="0 0 120 44.999999" height="60" preserveAspectRatio="xMidYMid meet" version="1.0"><defs><g/><clipPath id="7e63e12fb7"><path d="M 40.917969 6.183594 L 49.554688 6.183594 L 49.554688 14 L 40.917969 14 Z M 40.917969 6.183594 " clip-rule="nonzero"/></clipPath><clipPath id="b28e83c0cd"><path d="M 49.5625 9.4375 L 54.8125 9.4375 L 54.8125 14 L 49.5625 14 Z M 49.5625 9.4375 " clip-rule="nonzero"/></clipPath><clipPath id="0e80caecf5"><path d="M 20 8.722656 L 27 8.722656 L 27 14 L 20 14 Z M 20 8.722656 " clip-rule="nonzero"/></clipPath><clipPath id="4d72ee1ca3"><path d="M 28 13 L 34.5 13 L 34.5 17 L 28 17 Z M 28 13 " clip-rule="nonzero"/></clipPath></defs><rect x="-12" width="144" fill="#ffffff" y="-4.5" height="53.999999" fill-opacity="1"/><rect x="-12" width="144" fill="#ffffff" y="-4.5" height="53.999999" fill-opacity="1"/><g fill="#02391e" fill-opacity="1"><g transform="translate(40.983646, 28.377293)"><g><path d="M 0.953125 3.21875 L 4.65625 1.40625 C 5.332031 2.53125 6.515625 3.09375 8.203125 3.09375 C 8.992188 3.09375 9.722656 2.835938 10.390625 2.328125 C 11.066406 1.828125 11.40625 1.0625 11.40625 0.03125 L 11.40625 -0.953125 C 10.601562 -0.0546875 9.171875 0.390625 7.109375 0.390625 C 5.210938 0.390625 3.648438 -0.273438 2.421875 -1.609375 C 1.203125 -2.953125 0.59375 -4.597656 0.59375 -6.546875 C 0.59375 -8.492188 1.203125 -10.140625 2.421875 -11.484375 C 3.648438 -12.828125 5.210938 -13.5 7.109375 -13.5 C 8.796875 -13.5 10.203125 -12.976562 11.328125 -11.9375 L 11.40625 -11.9375 L 11.40625 -13.125 L 15.9375 -13.125 L 15.9375 0.359375 C 15.9375 2.492188 15.226562 4.140625 13.8125 5.296875 C 12.394531 6.453125 10.523438 7.03125 8.203125 7.03125 C 4.453125 7.03125 2.035156 5.757812 0.953125 3.21875 Z M 6.265625 -8.765625 C 5.679688 -8.191406 5.390625 -7.453125 5.390625 -6.546875 C 5.390625 -5.640625 5.671875 -4.898438 6.234375 -4.328125 C 6.796875 -3.765625 7.539062 -3.484375 8.46875 -3.484375 C 9.351562 -3.484375 10.082031 -3.769531 10.65625 -4.34375 C 11.226562 -4.925781 11.515625 -5.660156 11.515625 -6.546875 C 11.515625 -7.453125 11.21875 -8.191406 10.625 -8.765625 C 10.039062 -9.347656 9.320312 -9.640625 8.46875 -9.640625 C 7.59375 -9.640625 6.859375 -9.347656 6.265625 -8.765625 Z M 6.265625 -8.765625 "/></g></g></g><g fill="#02391e" fill-opacity="1"><g transform="translate(56.273913, 28.377293)"><g><path d="M 1.53125 0 L 1.53125 -13.125 L 6.0625 -13.125 L 6.0625 -11.234375 L 6.109375 -11.234375 C 6.148438 -11.296875 6.207031 -11.378906 6.28125 -11.484375 C 6.351562 -11.585938 6.515625 -11.765625 6.765625 -12.015625 C 7.023438 -12.273438 7.300781 -12.503906 7.59375 -12.703125 C 7.882812 -12.910156 8.257812 -13.09375 8.71875 -13.25 C 9.175781 -13.414062 9.644531 -13.5 10.125 -13.5 C 10.625 -13.5 11.109375 -13.429688 11.578125 -13.296875 C 12.054688 -13.160156 12.410156 -13.023438 12.640625 -12.890625 L 13 -12.6875 L 11.09375 -8.84375 C 10.53125 -9.320312 9.75 -9.5625 8.75 -9.5625 C 8.195312 -9.5625 7.722656 -9.441406 7.328125 -9.203125 C 6.941406 -8.960938 6.664062 -8.671875 6.5 -8.328125 C 6.34375 -7.992188 6.226562 -7.707031 6.15625 -7.46875 C 6.09375 -7.226562 6.0625 -7.039062 6.0625 -6.90625 L 6.0625 0 Z M 1.53125 0 "/></g></g></g><g fill="#02391e" fill-opacity="1"><g transform="translate(66.833662, 28.377293)"><g><path d="M 14.8125 -5.9375 L 5.296875 -5.9375 C 5.296875 -5.007812 5.59375 -4.320312 6.1875 -3.875 C 6.78125 -3.4375 7.429688 -3.21875 8.140625 -3.21875 C 8.867188 -3.21875 9.445312 -3.316406 9.875 -3.515625 C 10.300781 -3.710938 10.785156 -4.101562 11.328125 -4.6875 L 14.609375 -3.046875 C 13.242188 -0.753906 10.972656 0.390625 7.796875 0.390625 C 5.816406 0.390625 4.117188 -0.285156 2.703125 -1.640625 C 1.296875 -3.003906 0.59375 -4.640625 0.59375 -6.546875 C 0.59375 -8.453125 1.296875 -10.085938 2.703125 -11.453125 C 4.117188 -12.816406 5.816406 -13.5 7.796875 -13.5 C 9.878906 -13.5 11.570312 -12.898438 12.875 -11.703125 C 14.175781 -10.503906 14.828125 -8.785156 14.828125 -6.546875 C 14.828125 -6.242188 14.820312 -6.039062 14.8125 -5.9375 Z M 5.421875 -8.4375 L 10.40625 -8.4375 C 10.300781 -9.125 10.03125 -9.648438 9.59375 -10.015625 C 9.164062 -10.378906 8.609375 -10.5625 7.921875 -10.5625 C 7.171875 -10.5625 6.570312 -10.363281 6.125 -9.96875 C 5.6875 -9.582031 5.453125 -9.070312 5.421875 -8.4375 Z M 5.421875 -8.4375 "/></g></g></g><g fill="#02391e" fill-opacity="1"><g transform="translate(80.078297, 28.377293)"><g><path d="M 14.8125 -5.9375 L 5.296875 -5.9375 C 5.296875 -5.007812 5.59375 -4.320312 6.1875 -3.875 C 6.78125 -3.4375 7.429688 -3.21875 8.140625 -3.21875 C 8.867188 -3.21875 9.445312 -3.316406 9.875 -3.515625 C 10.300781 -3.710938 10.785156 -4.101562 11.328125 -4.6875 L 14.609375 -3.046875 C 13.242188 -0.753906 10.972656 0.390625 7.796875 0.390625 C 5.816406 0.390625 4.117188 -0.285156 2.703125 -1.640625 C 1.296875 -3.003906 0.59375 -4.640625 0.59375 -6.546875 C 0.59375 -8.453125 1.296875 -10.085938 2.703125 -11.453125 C 4.117188 -12.816406 5.816406 -13.5 7.796875 -13.5 C 9.878906 -13.5 11.570312 -12.898438 12.875 -11.703125 C 14.175781 -10.503906 14.828125 -8.785156 14.828125 -6.546875 C 14.828125 -6.242188 14.820312 -6.039062 14.8125 -5.9375 Z M 5.421875 -8.4375 L 10.40625 -8.4375 C 10.300781 -9.125 10.03125 -9.648438 9.59375 -10.015625 C 9.164062 -10.378906 8.609375 -10.5625 7.921875 -10.5625 C 7.171875 -10.5625 6.570312 -10.363281 6.125 -9.96875 C 5.6875 -9.582031 5.453125 -9.070312 5.421875 -8.4375 Z M 5.421875 -8.4375 "/></g></g></g><g fill="#02391e" fill-opacity="1"><g transform="translate(93.322933, 28.377293)"><g><path d="M 1.53125 0 L 1.53125 -13.125 L 6.0625 -13.125 L 6.0625 -11.734375 L 6.109375 -11.734375 C 7.285156 -12.910156 8.539062 -13.5 9.875 -13.5 C 10.519531 -13.5 11.160156 -13.414062 11.796875 -13.25 C 12.441406 -13.082031 13.054688 -12.816406 13.640625 -12.453125 C 14.234375 -12.097656 14.710938 -11.59375 15.078125 -10.9375 C 15.441406 -10.28125 15.625 -9.515625 15.625 -8.640625 L 15.625 0 L 11.09375 0 L 11.09375 -7.421875 C 11.09375 -8.097656 10.875 -8.691406 10.4375 -9.203125 C 10.007812 -9.710938 9.445312 -9.96875 8.75 -9.96875 C 8.0625 -9.96875 7.441406 -9.703125 6.890625 -9.171875 C 6.335938 -8.648438 6.0625 -8.066406 6.0625 -7.421875 L 6.0625 0 Z M 1.53125 0 "/></g></g></g><g clip-path="url(#7e63e12fb7)"><path fill="#99e631" d="M 42.847656 7.644531 C 46.921875 7.625 49.105469 9.523438 49.292969 13.460938 C 49.296875 13.507812 49.367188 13.511719 49.375 13.460938 C 49.554688 12.175781 49.519531 11.003906 49.195312 9.988281 C 48.117188 6.625 44.011719 6.183594 41.09375 7.25 C 40.949219 7.300781 40.921875 7.488281 41.042969 7.585938 C 43.316406 9.402344 43.003906 14.363281 48.539062 12.214844 C 47.675781 9.527344 45.902344 7.863281 42.847656 7.644531 " fill-opacity="1" fill-rule="evenodd"/></g><g clip-path="url(#b28e83c0cd)"><path fill="#99e631" d="M 53.601562 10.320312 C 51.148438 10.308594 49.832031 11.453125 49.71875 13.824219 C 49.71875 13.855469 49.675781 13.855469 49.671875 13.824219 C 49.5625 13.050781 49.582031 12.34375 49.777344 11.730469 C 50.429688 9.707031 52.902344 9.441406 54.660156 10.082031 C 54.746094 10.113281 54.765625 10.226562 54.691406 10.285156 C 53.320312 11.378906 53.507812 14.371094 50.175781 13.074219 C 50.695312 11.457031 51.761719 10.453125 53.601562 10.320312 " fill-opacity="1" fill-rule="evenodd"/></g><path fill="#99e631" d="M 20.058594 17.160156 C 19.890625 17.160156 19.734375 17.113281 19.601562 17.027344 L 19.601562 17.292969 C 19.601562 17.617188 19.421875 17.910156 19.136719 18.0625 C 16.929688 19.226562 15.421875 21.546875 15.421875 24.203125 L 15.421875 35.121094 C 15.421875 36.074219 16.203125 36.855469 17.15625 36.855469 L 30.605469 36.855469 C 31.558594 36.855469 32.339844 36.074219 32.339844 35.121094 L 32.339844 24.203125 C 32.339844 21.546875 30.828125 19.226562 28.625 18.0625 C 28.339844 17.910156 28.160156 17.617188 28.160156 17.292969 L 28.160156 17.027344 C 28.027344 17.113281 27.871094 17.160156 27.699219 17.160156 Z M 20.058594 17.160156 " fill-opacity="1" fill-rule="nonzero"/><g clip-path="url(#0e80caecf5)"><path fill="#99e631" d="M 24.214844 9.875 L 26.390625 9.875 C 26.6875 9.875 26.792969 9.476562 26.535156 9.332031 C 25.863281 8.960938 24.894531 8.722656 23.820312 8.722656 C 22.742188 8.722656 21.773438 8.960938 21.101562 9.332031 C 20.84375 9.476562 20.949219 9.875 21.246094 9.875 L 23.421875 9.875 L 23.421875 13.511719 L 24.214844 13.511719 Z M 24.214844 9.875 " fill-opacity="1" fill-rule="nonzero"/></g><path fill="#99e631" d="M 19.191406 14.574219 L 14.261719 14.574219 C 12.785156 14.574219 11.503906 15.585938 11.164062 17.023438 L 9.15625 25.53125 C 9 26.199219 9.503906 26.835938 10.191406 26.835938 C 10.683594 26.835938 11.113281 26.5 11.222656 26.019531 L 13.324219 17.117188 C 13.480469 16.464844 14.0625 16.003906 14.734375 16.003906 L 19.191406 16.003906 L 19.191406 14.570312 Z M 19.191406 14.574219 " fill-opacity="1" fill-rule="nonzero"/><g clip-path="url(#4d72ee1ca3)"><path fill="#99e631" d="M 34.148438 14.4375 L 31.140625 14 C 30.964844 13.976562 30.8125 14.109375 30.8125 14.285156 C 30.8125 14.445312 30.683594 14.574219 30.523438 14.574219 L 28.644531 14.574219 C 28.617188 14.574219 28.59375 14.578125 28.570312 14.578125 L 28.570312 16.070312 C 28.59375 16.070312 28.617188 16.078125 28.644531 16.078125 L 30.523438 16.078125 C 30.683594 16.078125 30.8125 16.203125 30.8125 16.363281 C 30.8125 16.539062 30.964844 16.671875 31.140625 16.648438 L 34.148438 16.210938 C 34.519531 16.15625 34.792969 15.839844 34.792969 15.464844 L 34.792969 15.183594 C 34.792969 14.808594 34.519531 14.492188 34.148438 14.4375 Z M 34.148438 14.4375 " fill-opacity="1" fill-rule="nonzero"/></g><path fill="#99e631" d="M 27.699219 13.832031 L 20.058594 13.832031 C 19.757812 13.832031 19.511719 14.078125 19.511719 14.378906 L 19.511719 16.292969 C 19.511719 16.480469 19.609375 16.65625 19.769531 16.757812 C 19.859375 16.8125 19.957031 16.839844 20.058594 16.839844 L 27.699219 16.839844 C 27.800781 16.839844 27.898438 16.8125 27.988281 16.757812 C 28.152344 16.65625 28.25 16.480469 28.25 16.292969 L 28.25 14.378906 C 28.25 14.078125 28.003906 13.832031 27.699219 13.832031 Z M 27.699219 13.832031 " fill-opacity="1" fill-rule="nonzero"/><path fill="#ffffff" d="M 28.109375 17.058594 C 28.074219 17.078125 28.039062 17.09375 28 17.105469 C 28.039062 17.09375 28.074219 17.078125 28.109375 17.058594 Z M 28.109375 17.058594 " fill-opacity="1" fill-rule="nonzero"/><path fill="#ffffff" d="M 28.523438 16.570312 C 28.511719 16.605469 28.496094 16.640625 28.480469 16.671875 C 28.496094 16.640625 28.511719 16.605469 28.523438 16.570312 Z M 28.523438 16.570312 " fill-opacity="1" fill-rule="nonzero"/><path fill="#ffffff" d="M 28.5625 16.40625 C 28.554688 16.445312 28.550781 16.480469 28.539062 16.519531 C 28.550781 16.480469 28.554688 16.445312 28.5625 16.40625 Z M 28.5625 16.40625 " fill-opacity="1" fill-rule="nonzero"/><path fill="#ffffff" d="M 28.570312 16.292969 C 28.570312 16.332031 28.566406 16.371094 28.5625 16.40625 C 28.566406 16.371094 28.570312 16.332031 28.570312 16.292969 Z M 28.570312 16.292969 " fill-opacity="1" fill-rule="nonzero"/><path fill="#ffffff" d="M 19.523438 16.972656 C 19.546875 16.992188 19.574219 17.011719 19.601562 17.027344 C 19.71875 17.101562 19.851562 17.148438 19.996094 17.160156 C 19.851562 17.148438 19.71875 17.101562 19.601562 17.027344 C 19.574219 17.011719 19.546875 16.992188 19.523438 16.972656 Z M 19.523438 16.972656 " fill-opacity="1" fill-rule="nonzero"/><path fill="#ffffff" d="M 21.203125 23.808594 C 19.25 25.28125 18.589844 27.292969 18.515625 28.625 C 18.496094 28.957031 18.519531 29.25 18.589844 29.523438 C 18.65625 29.78125 18.992188 29.847656 19.152344 29.632812 C 20.0625 28.410156 22.863281 26.097656 24.203125 25.457031 C 23.5625 26.800781 20.960938 29.425781 19.929688 30.285156 C 19.425781 30.636719 18.851562 30.960938 18.253906 31.226562 C 18.007812 31.335938 17.871094 31.601562 17.921875 31.867188 C 17.996094 32.234375 18.390625 32.4375 18.730469 32.28125 C 19.265625 32.03125 19.769531 31.738281 20.238281 31.398438 C 20.316406 31.4375 20.398438 31.472656 20.480469 31.503906 C 21.417969 31.867188 22.714844 31.777344 24.023438 31.089844 C 27.972656 29.027344 28.964844 22.074219 28.964844 22.074219 C 28.984375 21.90625 23.515625 22.066406 21.203125 23.808594 Z M 21.203125 23.808594 " fill-opacity="1" fill-rule="nonzero"/><g fill="#322f30" fill-opacity="1"><g transform="translate(58.279131, 36.299116)"><g><path d="M 0.953125 0 L 0.953125 -6.5 L 4.671875 -6.5 L 4.671875 -5.734375 L 1.765625 -5.734375 L 1.765625 -3.484375 L 4.421875 -3.484375 L 4.421875 -2.734375 L 1.765625 -2.734375 L 1.765625 0 Z M 0.953125 0 "/></g></g></g><g fill="#322f30" fill-opacity="1"><g transform="translate(68.506594, 36.299116)"><g><path d="M 0.953125 0 L 0.953125 -6.5 L 4.890625 -6.5 L 4.890625 -5.734375 L 1.765625 -5.734375 L 1.765625 -3.6875 L 4.65625 -3.6875 L 4.65625 -2.9375 L 1.765625 -2.9375 L 1.765625 -0.765625 L 5 -0.765625 L 5 0 Z M 0.953125 0 "/></g></g></g><g fill="#322f30" fill-opacity="1"><g transform="translate(79.151609, 36.299116)"><g><path d="M 0.953125 0 L 0.953125 -6.5 L 3.421875 -6.5 C 3.878906 -6.5 4.273438 -6.410156 4.609375 -6.234375 C 4.941406 -6.066406 5.195312 -5.828125 5.375 -5.515625 C 5.5625 -5.210938 5.65625 -4.84375 5.65625 -4.40625 C 5.65625 -3.882812 5.519531 -3.453125 5.25 -3.109375 C 4.976562 -2.765625 4.601562 -2.53125 4.125 -2.40625 L 5.765625 0 L 4.78125 0 L 3.1875 -2.328125 L 1.765625 -2.328125 L 1.765625 0 Z M 1.765625 -3.109375 L 3.328125 -3.109375 C 3.804688 -3.109375 4.175781 -3.21875 4.4375 -3.4375 C 4.695312 -3.664062 4.828125 -3.988281 4.828125 -4.40625 C 4.828125 -4.820312 4.695312 -5.144531 4.4375 -5.375 C 4.175781 -5.601562 3.804688 -5.71875 3.328125 -5.71875 L 1.765625 -5.71875 Z M 1.765625 -3.109375 "/></g></g></g><g fill="#322f30" fill-opacity="1"><g transform="translate(90.520379, 36.299116)"><g><path d="M 2.515625 0 L 2.515625 -5.71875 L 0.3125 -5.71875 L 0.3125 -6.5 L 5.515625 -6.5 L 5.515625 -5.71875 L 3.328125 -5.71875 L 3.328125 0 Z M 2.515625 0 "/></g></g></g><g fill="#322f30" fill-opacity="1"><g transform="translate(101.415924, 36.299116)"><g><path d="M 0.15625 0 L 2.828125 -6.5 L 3.59375 -6.5 L 6.265625 0 L 5.40625 0 L 4.796875 -1.46875 L 1.625 -1.46875 L 1.03125 0 Z M 1.9375 -2.234375 L 4.484375 -2.234375 L 3.21875 -5.359375 Z M 1.9375 -2.234375 "/></g></g></g></svg>