<svg id="svg" fill="#000000" stroke="#000000" width="133" height="133" version="1.1" viewBox="96 96 608 608" xmlns="http://www.w3.org/2000/svg" stroke-width="0">
    <g id="IconSvg_bgCarrier" stroke-width="0"></g>
    <g id="IconSvg_tracerCarrier" stroke-linecap="round" stroke-linejoin="round" stroke="#9b9fd9" stroke-width="24">
      <g xmlns="http://www.w3.org/2000/svg">
  <path d="m201.87 391.73v-130.87c0-10.332 8.3633-18.695 18.695-18.695h130.87c10.332 0 18.695 8.3633 18.695 18.695v181.05c0 64.109-52.004 116.11-116.11 116.11v-67.895c13.332 0 25.387-5.4102 34.094-14.121 8.707-8.707 14.121-20.762 14.121-34.094v-31.488h-81.672c-10.328-0.003906-18.691-8.3672-18.691-18.699z"></path>
  <path d="m209.25 391.73v-49.102-71.93-8.3164-1.4766-0.050781c0-0.6875 0.050781-1.3789 0.097656-2.0156-0.050781 0.34375-0.29688 1.3281 0.050782 0 0.14844-0.64062 0.34375-1.2773 0.54297-1.918 0.050782-0.29688 0.54297-1.3281-0.050781-0.050781 0.54297-1.1797 1.1797-2.3125 1.918-3.2969-0.83594 1.082-0.14844 0.19531 0.050781 0 0.44141-0.44141 0.93359-0.88672 1.3281-1.3281 0.88672-0.93359 0.29688-0.24609 0-0.050781 0.49219-0.39453 1.0312-0.73828 1.625-1.0312 0.39453-0.19531 0.73828-0.39453 1.1328-0.58984 1.6719-0.93359-1.2305 0.24609 0.64063-0.24609 0.44141-0.097656 0.83594-0.24609 1.2773-0.39453 0.44141-0.097656 0.83594-0.19531 1.2773-0.29688-0.88672 0.097656-0.83594 0.097656 0.050781 0 0.73828 0 1.4258-0.050781 2.1172-0.050781h7.2305 70.406c17.418 0 34.883-0.24609 52.348 0 0.58984 0 1.2305 0.050781 1.8203 0.097656 1.2305 0.097656-1.5742-0.49219 0.34375 0.097656 0.54297 0.14844 1.082 0.29688 1.5742 0.44141 0.34375 0.097657 1.6719 0.64063 0.34375 0.050782 0.58984 0.24609 1.1797 0.54297 1.7227 0.88672 0.54297 0.34375 1.082 0.6875 1.625 1.0312-0.29688-0.19531-0.88672-0.88672 0 0.050782 0.44141 0.44141 0.88672 0.93359 1.3281 1.3281 0.19531 0.19531 0.88672 1.082 0.050781 0 0.64063 0.88672 1.1328 1.8203 1.6719 2.7539 0.93359 1.6719-0.24609-1.2305 0.24609 0.64062 0.14844 0.64062 0.34375 1.2773 0.54297 1.918 0.58984 1.918 0-0.83594 0.097656 0.34375 0.050782 0.58984 0.050782 1.1328 0.097656 1.7227v0.050781 0.39453 1.8203 19.336 73.359 70.16 15.398 2.6562c-0.050781 2.3125-0.14844 4.5742-0.34375 6.8867-0.097656 1.1328-0.19531 2.2617-0.29687 3.3945-0.050782 0.44141-0.097657 0.88672-0.14844 1.3281-0.050781 0.44141-0.29688 2.0664-0.097656 0.73828-1.3281 9.1992-3.6914 18.254-7.1836 26.863-0.14844 0.39453-0.34375 0.78906-0.49219 1.2305 0.64063-1.5234-0.19531 0.49219-0.29687 0.64063-0.44141 0.98437-0.88672 1.9688-1.3789 2.9531-1.0312 2.1641-2.1172 4.2812-3.2461 6.3477-2.0664 3.7891-4.3789 7.4297-6.8867 10.922-0.64062 0.88672-1.2773 1.7227-1.918 2.6094-1.2773 1.7227 0.93359-1.1328-0.44141 0.54297-0.24609 0.34375-0.54297 0.6875-0.78906 0.98437-1.4766 1.8203-3 3.6406-4.625 5.3633-3.0508 3.3438-6.25 6.4961-9.6445 9.4453-1.625 1.4258-3.2969 2.8047-4.9688 4.082 1.1797-0.93359-1.2305 0.93359-1.5742 1.1797-0.93359 0.6875-1.918 1.3789-2.9023 2.0156-3.6406 2.5078-7.4766 4.7734-11.367 6.8398-1.918 0.98438-3.8867 1.9688-5.8555 2.8555-0.58984 0.24609-1.1797 0.54297-1.7695 0.78906-0.24609 0.097656-1.3281 0.54297-0.050781 0-1.2305 0.49219-2.4102 0.98438-3.6406 1.4258-4.3281 1.625-8.7578 3-13.234 4.082-2.1641 0.54297-4.3281 0.98437-6.543 1.3789-1.082 0.19531-2.2148 0.39453-3.2969 0.54297-0.44141 0.050782-0.88672 0.14844-1.3281 0.19531 1.6719-0.24609-0.54297 0.050781-0.73828 0.097656-4.5273 0.54297-9.1016 0.78906-13.676 0.78906 2.4609 2.4609 4.9219 4.9219 7.3789 7.3789v-59.336-8.5625c-2.4609 2.4609-4.9219 4.9219-7.3789 7.3789 21.895-0.19531 42.312-13.234 50.973-33.457 5.4609-12.84 4.625-26.223 4.625-39.852v-13.777c0-3.9844-3.3945-7.3789-7.3789-7.3789h-34.934-44.527-1.918-0.29688c-0.6875 0-1.3789-0.050781-2.0156-0.097656 1.4766 0.14844-0.83594-0.24609-1.2773-0.39453-0.39453-0.097657-0.83594-0.24609-1.2305-0.39453 0.6875 0.24609 0.58984 0.29688 0-0.050781-0.73828-0.39453-1.4766-0.83594-2.2148-1.2773-0.097656-0.050781-0.93359-0.6875-0.29688-0.19531 0.73828 0.58984-0.58984-0.54297-0.6875-0.6875-0.29688-0.29688-1.8203-2.0664-0.93359-0.88672-0.44141-0.58984-0.83594-1.2305-1.2305-1.8711-0.19531-0.39453-0.39453-0.73828-0.58984-1.1328-0.49219-0.98438 0.34375 1.0312 0-0.050782-0.24609-0.83594-0.49219-1.6719-0.6875-2.5078-0.19531-0.83594 0 0.19531 0 0.29688-0.10547-0.6875-0.15234-1.375-0.15234-2.0625-0.050781-3.8359-3.3438-7.5781-7.3789-7.3789-3.9375 0.19531-7.4766 3.2461-7.3789 7.3789 0.24609 14.465 11.855 25.93 26.273 26.074 4.6758 0.050781 9.2969 0 13.973 0h53.332 14.168c-2.4609-2.4609-4.9219-4.9219-7.3789-7.3789v27.109 4.2305c0 1.2773-0.050781 2.5078-0.14844 3.7891-0.14844 2.0156-0.39453 3.543-1.0312 6.1992-2.1172 8.4609-6.4453 15.449-13.234 21.352-1.3789 1.2305-1.0312 0.93359-2.3633 1.8711-1.0312 0.73828-2.1172 1.4258-3.1992 2.0664-1.082 0.64062-2.2148 1.2305-3.3438 1.8203-0.44141 0.24609-0.93359 0.44141-1.3789 0.64062-2.1641 0.98438 1.1797-0.34375-1.082 0.44141-2.4609 0.83594-4.9219 1.625-7.4766 2.1172-0.64062 0.14844-1.2773 0.24609-1.918 0.34375-0.54297 0.097656-0.54297 0.097656 0 0-0.39453 0.050782-0.78906 0.097656-1.1797 0.097656-1.4766 0.14844-2.9531 0.19531-4.4297 0.19531-3.9844 0.050781-7.3789 3.3438-7.3789 7.3789v59.336 8.5625c0 3.9844 3.3945 7.3789 7.3789 7.3789 39.559-0.097656 76.652-19.285 100.02-51.07 11.07-15.055 18.648-32.965 21.648-51.414 1.4258-8.707 1.8203-17.418 1.8203-26.223v-60.516-79.703-27.059c0-5.8555 0.49219-12.102-1.6719-17.664-3.9844-10.184-13.48-16.828-24.453-16.973h-4.7734-28.043-77.836c-6.543 0-13.086-0.050781-19.68 0-15.055 0.050781-26.566 12.004-26.566 26.961-0.050781 19.73 0 39.457 0 59.188v66.961 3.8359c0 3.8359 3.3945 7.5781 7.3789 7.3789 3.9336-0.14453 7.3281-3.1953 7.3281-7.3281z"></path>
  <path d="m429.67 391.73v-130.87c0-10.332 8.3633-18.695 18.695-18.695h130.87c10.332 0 18.695 8.3633 18.695 18.695v181.05c0 64.109-52.004 116.11-116.11 116.11v-67.895c13.332 0 25.387-5.4102 34.094-14.121 8.707-8.707 14.121-20.762 14.121-34.094v-31.488h-81.672c-10.328-0.003906-18.691-8.3672-18.691-18.699z"></path>
  <path d="m437.05 391.73v-49.102-71.93-8.3164-1.4766-0.050781c0-0.6875 0.050781-1.3789 0.097656-2.0156-0.050781 0.34375-0.29688 1.3281 0.050781 0 0.14844-0.64062 0.34375-1.2773 0.54297-1.918 0.050781-0.29688 0.54297-1.3281-0.050781-0.050781 0.54297-1.1797 1.1797-2.3125 1.918-3.2969-0.83594 1.082-0.14844 0.19531 0.050781 0 0.44141-0.44141 0.93359-0.88672 1.3281-1.3281 0.88672-0.93359 0.29688-0.24609 0-0.050781 0.49219-0.39453 1.0312-0.73828 1.625-1.0312 0.39453-0.19531 0.73828-0.39453 1.1328-0.58984 1.6719-0.93359-1.2305 0.24609 0.64062-0.24609 0.44141-0.097656 0.83594-0.24609 1.2773-0.39453 0.44141-0.097656 0.83594-0.19531 1.2773-0.29688-0.88672 0.097656-0.83594 0.097656 0.050781 0 0.73828 0 1.4258-0.050781 2.1172-0.050781h7.2305 70.406c17.418 0 34.883-0.24609 52.348 0 0.58984 0 1.2305 0.050781 1.8203 0.097656 1.2305 0.097656-1.5742-0.49219 0.34375 0.097656 0.54297 0.14844 1.082 0.29688 1.5742 0.44141 0.34375 0.097657 1.6719 0.64063 0.34375 0.050782 0.58984 0.24609 1.1797 0.54297 1.7227 0.88672s1.082 0.6875 1.625 1.0312c-0.29688-0.19531-0.88672-0.88672 0 0.050782 0.44141 0.44141 0.88672 0.93359 1.3281 1.3281 0.19531 0.19531 0.88672 1.082 0.050782 0 0.64062 0.88672 1.1328 1.8203 1.6719 2.7539 0.93359 1.6719-0.24609-1.2305 0.24609 0.64062 0.14844 0.64062 0.34375 1.2773 0.54297 1.918 0.58984 1.918 0-0.83594 0.097656 0.34375 0.050781 0.58984 0.050781 1.1328 0.097657 1.7227v0.050781 0.39453 1.8203 19.336 73.359 70.16 15.398 2.6562c-0.050782 2.3125-0.14844 4.5742-0.34375 6.8867-0.097657 1.1328-0.19531 2.2617-0.29688 3.3945-0.050781 0.44141-0.097656 0.88672-0.14844 1.3281-0.050781 0.44141-0.29688 2.0664-0.097656 0.73828-1.3281 9.1992-3.6914 18.254-7.1836 26.863-0.14844 0.39453-0.34375 0.78906-0.49219 1.2305 0.64062-1.5234-0.19531 0.49219-0.29688 0.64063-0.44141 0.98437-0.88672 1.9688-1.3789 2.9531-1.0312 2.1641-2.1172 4.2812-3.2461 6.3477-2.0664 3.7891-4.3789 7.4297-6.8867 10.922-0.64062 0.88672-1.2773 1.7227-1.918 2.6094-1.2773 1.7227 0.93359-1.1328-0.44141 0.54297-0.24609 0.34375-0.54297 0.6875-0.78906 0.98437-1.4766 1.8203-3 3.6406-4.625 5.3633-3.0508 3.3438-6.25 6.4961-9.6445 9.4453-1.625 1.4258-3.2969 2.8047-4.9688 4.082 1.1797-0.93359-1.2305 0.93359-1.5742 1.1797-0.93359 0.6875-1.918 1.3789-2.9023 2.0156-3.6406 2.5078-7.4766 4.7734-11.367 6.8398-1.918 0.98438-3.8867 1.9688-5.8555 2.8555-0.58984 0.24609-1.1797 0.54297-1.7695 0.78906-0.24609 0.097656-1.3281 0.54297-0.050781 0-1.2305 0.49219-2.4102 0.98438-3.6406 1.4258-4.3281 1.625-8.7578 3-13.234 4.082-2.1641 0.54297-4.3281 0.98437-6.543 1.3789-1.082 0.19531-2.2148 0.39453-3.2969 0.54297-0.44141 0.050782-0.88672 0.14844-1.3281 0.19531 1.6719-0.24609-0.54297 0.050781-0.73828 0.097656-4.5273 0.54297-9.1016 0.78906-13.676 0.78906 2.4609 2.4609 4.9219 4.9219 7.3789 7.3789v-59.336-8.5625c-2.4609 2.4609-4.9219 4.9219-7.3789 7.3789 21.895-0.19531 42.312-13.234 50.973-33.457 5.4609-12.84 4.625-26.223 4.625-39.852v-13.777c0-3.9844-3.3945-7.3789-7.3789-7.3789h-34.934-44.527-1.918-0.29688c-0.6875 0-1.3789-0.050781-2.0156-0.097656 1.4766 0.14844-0.83594-0.24609-1.2773-0.39453-0.39453-0.097657-0.83594-0.24609-1.2305-0.39453 0.6875 0.24609 0.58984 0.29688 0-0.050781-0.73828-0.39453-1.4766-0.83594-2.2148-1.2773-0.097656-0.050781-0.93359-0.6875-0.29688-0.19531 0.73828 0.58984-0.58984-0.54297-0.6875-0.6875-0.29688-0.29688-1.8203-2.0664-0.93359-0.88672-0.44141-0.58984-0.83594-1.2305-1.2305-1.8711-0.19531-0.39453-0.39453-0.73828-0.58984-1.1328-0.49219-0.98438 0.34375 1.0312 0-0.050782-0.24609-0.83594-0.49219-1.6719-0.6875-2.5078-0.19531-0.83594 0 0.19531 0 0.29688-0.10547-0.6875-0.15234-1.375-0.15234-2.0625-0.050781-3.8359-3.3438-7.5781-7.3789-7.3789-3.9375 0.19531-7.4766 3.2461-7.3789 7.3789 0.24609 14.465 11.855 25.93 26.273 26.074 4.6758 0.050781 9.2969 0 13.973 0h53.332 14.168c-2.4609-2.4609-4.9219-4.9219-7.3789-7.3789v27.109 4.2305c0 1.2773-0.050781 2.5078-0.14844 3.7891-0.14844 2.0156-0.39453 3.543-1.0312 6.1992-2.1172 8.4609-6.4453 15.449-13.234 21.352-1.3789 1.2305-1.0312 0.93359-2.3633 1.8711-1.0312 0.73828-2.1172 1.4258-3.1992 2.0664-1.082 0.64062-2.2148 1.2305-3.3438 1.8203-0.44141 0.24609-0.93359 0.44141-1.3789 0.64062-2.1641 0.98438 1.1797-0.34375-1.082 0.44141-2.4609 0.83594-4.9219 1.625-7.4766 2.1172-0.64063 0.14844-1.2773 0.24609-1.918 0.34375-0.54297 0.097656-0.54297 0.097656 0 0-0.39453 0.050782-0.78906 0.097656-1.1797 0.097656-1.4766 0.14844-2.9531 0.19531-4.4297 0.19531-3.9844 0.050781-7.3789 3.3438-7.3789 7.3789v59.336 8.5625c0 3.9844 3.3945 7.3789 7.3789 7.3789 39.559-0.097656 76.652-19.285 100.02-51.07 11.07-15.055 18.648-32.965 21.648-51.414 1.4258-8.707 1.8203-17.418 1.8203-26.223v-60.516-79.703-27.059c0-5.8555 0.49219-12.102-1.6719-17.664-3.9844-10.184-13.48-16.828-24.453-16.973h-4.7734-28.043-77.836c-6.543 0-13.086-0.050781-19.68 0-15.055 0.050781-26.566 12.004-26.566 26.961-0.050782 19.73 0 39.457 0 59.188v66.961 3.8359c0 3.8359 3.3945 7.5781 7.3789 7.3789 3.9336-0.14453 7.3281-3.1953 7.3281-7.3281z"></path>
 </g>

      </g>
     <g id="IconSvg_iconCarrier">
      <g xmlns="http://www.w3.org/2000/svg">
  <path d="m201.87 391.73v-130.87c0-10.332 8.3633-18.695 18.695-18.695h130.87c10.332 0 18.695 8.3633 18.695 18.695v181.05c0 64.109-52.004 116.11-116.11 116.11v-67.895c13.332 0 25.387-5.4102 34.094-14.121 8.707-8.707 14.121-20.762 14.121-34.094v-31.488h-81.672c-10.328-0.003906-18.691-8.3672-18.691-18.699z"></path>
  <path d="m209.25 391.73v-49.102-71.93-8.3164-1.4766-0.050781c0-0.6875 0.050781-1.3789 0.097656-2.0156-0.050781 0.34375-0.29688 1.3281 0.050782 0 0.14844-0.64062 0.34375-1.2773 0.54297-1.918 0.050782-0.29688 0.54297-1.3281-0.050781-0.050781 0.54297-1.1797 1.1797-2.3125 1.918-3.2969-0.83594 1.082-0.14844 0.19531 0.050781 0 0.44141-0.44141 0.93359-0.88672 1.3281-1.3281 0.88672-0.93359 0.29688-0.24609 0-0.050781 0.49219-0.39453 1.0312-0.73828 1.625-1.0312 0.39453-0.19531 0.73828-0.39453 1.1328-0.58984 1.6719-0.93359-1.2305 0.24609 0.64063-0.24609 0.44141-0.097656 0.83594-0.24609 1.2773-0.39453 0.44141-0.097656 0.83594-0.19531 1.2773-0.29688-0.88672 0.097656-0.83594 0.097656 0.050781 0 0.73828 0 1.4258-0.050781 2.1172-0.050781h7.2305 70.406c17.418 0 34.883-0.24609 52.348 0 0.58984 0 1.2305 0.050781 1.8203 0.097656 1.2305 0.097656-1.5742-0.49219 0.34375 0.097656 0.54297 0.14844 1.082 0.29688 1.5742 0.44141 0.34375 0.097657 1.6719 0.64063 0.34375 0.050782 0.58984 0.24609 1.1797 0.54297 1.7227 0.88672 0.54297 0.34375 1.082 0.6875 1.625 1.0312-0.29688-0.19531-0.88672-0.88672 0 0.050782 0.44141 0.44141 0.88672 0.93359 1.3281 1.3281 0.19531 0.19531 0.88672 1.082 0.050781 0 0.64063 0.88672 1.1328 1.8203 1.6719 2.7539 0.93359 1.6719-0.24609-1.2305 0.24609 0.64062 0.14844 0.64062 0.34375 1.2773 0.54297 1.918 0.58984 1.918 0-0.83594 0.097656 0.34375 0.050782 0.58984 0.050782 1.1328 0.097656 1.7227v0.050781 0.39453 1.8203 19.336 73.359 70.16 15.398 2.6562c-0.050781 2.3125-0.14844 4.5742-0.34375 6.8867-0.097656 1.1328-0.19531 2.2617-0.29687 3.3945-0.050782 0.44141-0.097657 0.88672-0.14844 1.3281-0.050781 0.44141-0.29688 2.0664-0.097656 0.73828-1.3281 9.1992-3.6914 18.254-7.1836 26.863-0.14844 0.39453-0.34375 0.78906-0.49219 1.2305 0.64063-1.5234-0.19531 0.49219-0.29687 0.64063-0.44141 0.98437-0.88672 1.9688-1.3789 2.9531-1.0312 2.1641-2.1172 4.2812-3.2461 6.3477-2.0664 3.7891-4.3789 7.4297-6.8867 10.922-0.64062 0.88672-1.2773 1.7227-1.918 2.6094-1.2773 1.7227 0.93359-1.1328-0.44141 0.54297-0.24609 0.34375-0.54297 0.6875-0.78906 0.98437-1.4766 1.8203-3 3.6406-4.625 5.3633-3.0508 3.3438-6.25 6.4961-9.6445 9.4453-1.625 1.4258-3.2969 2.8047-4.9688 4.082 1.1797-0.93359-1.2305 0.93359-1.5742 1.1797-0.93359 0.6875-1.918 1.3789-2.9023 2.0156-3.6406 2.5078-7.4766 4.7734-11.367 6.8398-1.918 0.98438-3.8867 1.9688-5.8555 2.8555-0.58984 0.24609-1.1797 0.54297-1.7695 0.78906-0.24609 0.097656-1.3281 0.54297-0.050781 0-1.2305 0.49219-2.4102 0.98438-3.6406 1.4258-4.3281 1.625-8.7578 3-13.234 4.082-2.1641 0.54297-4.3281 0.98437-6.543 1.3789-1.082 0.19531-2.2148 0.39453-3.2969 0.54297-0.44141 0.050782-0.88672 0.14844-1.3281 0.19531 1.6719-0.24609-0.54297 0.050781-0.73828 0.097656-4.5273 0.54297-9.1016 0.78906-13.676 0.78906 2.4609 2.4609 4.9219 4.9219 7.3789 7.3789v-59.336-8.5625c-2.4609 2.4609-4.9219 4.9219-7.3789 7.3789 21.895-0.19531 42.312-13.234 50.973-33.457 5.4609-12.84 4.625-26.223 4.625-39.852v-13.777c0-3.9844-3.3945-7.3789-7.3789-7.3789h-34.934-44.527-1.918-0.29688c-0.6875 0-1.3789-0.050781-2.0156-0.097656 1.4766 0.14844-0.83594-0.24609-1.2773-0.39453-0.39453-0.097657-0.83594-0.24609-1.2305-0.39453 0.6875 0.24609 0.58984 0.29688 0-0.050781-0.73828-0.39453-1.4766-0.83594-2.2148-1.2773-0.097656-0.050781-0.93359-0.6875-0.29688-0.19531 0.73828 0.58984-0.58984-0.54297-0.6875-0.6875-0.29688-0.29688-1.8203-2.0664-0.93359-0.88672-0.44141-0.58984-0.83594-1.2305-1.2305-1.8711-0.19531-0.39453-0.39453-0.73828-0.58984-1.1328-0.49219-0.98438 0.34375 1.0312 0-0.050782-0.24609-0.83594-0.49219-1.6719-0.6875-2.5078-0.19531-0.83594 0 0.19531 0 0.29688-0.10547-0.6875-0.15234-1.375-0.15234-2.0625-0.050781-3.8359-3.3438-7.5781-7.3789-7.3789-3.9375 0.19531-7.4766 3.2461-7.3789 7.3789 0.24609 14.465 11.855 25.93 26.273 26.074 4.6758 0.050781 9.2969 0 13.973 0h53.332 14.168c-2.4609-2.4609-4.9219-4.9219-7.3789-7.3789v27.109 4.2305c0 1.2773-0.050781 2.5078-0.14844 3.7891-0.14844 2.0156-0.39453 3.543-1.0312 6.1992-2.1172 8.4609-6.4453 15.449-13.234 21.352-1.3789 1.2305-1.0312 0.93359-2.3633 1.8711-1.0312 0.73828-2.1172 1.4258-3.1992 2.0664-1.082 0.64062-2.2148 1.2305-3.3438 1.8203-0.44141 0.24609-0.93359 0.44141-1.3789 0.64062-2.1641 0.98438 1.1797-0.34375-1.082 0.44141-2.4609 0.83594-4.9219 1.625-7.4766 2.1172-0.64062 0.14844-1.2773 0.24609-1.918 0.34375-0.54297 0.097656-0.54297 0.097656 0 0-0.39453 0.050782-0.78906 0.097656-1.1797 0.097656-1.4766 0.14844-2.9531 0.19531-4.4297 0.19531-3.9844 0.050781-7.3789 3.3438-7.3789 7.3789v59.336 8.5625c0 3.9844 3.3945 7.3789 7.3789 7.3789 39.559-0.097656 76.652-19.285 100.02-51.07 11.07-15.055 18.648-32.965 21.648-51.414 1.4258-8.707 1.8203-17.418 1.8203-26.223v-60.516-79.703-27.059c0-5.8555 0.49219-12.102-1.6719-17.664-3.9844-10.184-13.48-16.828-24.453-16.973h-4.7734-28.043-77.836c-6.543 0-13.086-0.050781-19.68 0-15.055 0.050781-26.566 12.004-26.566 26.961-0.050781 19.73 0 39.457 0 59.188v66.961 3.8359c0 3.8359 3.3945 7.5781 7.3789 7.3789 3.9336-0.14453 7.3281-3.1953 7.3281-7.3281z"></path>
  <path d="m429.67 391.73v-130.87c0-10.332 8.3633-18.695 18.695-18.695h130.87c10.332 0 18.695 8.3633 18.695 18.695v181.05c0 64.109-52.004 116.11-116.11 116.11v-67.895c13.332 0 25.387-5.4102 34.094-14.121 8.707-8.707 14.121-20.762 14.121-34.094v-31.488h-81.672c-10.328-0.003906-18.691-8.3672-18.691-18.699z"></path>
  <path d="m437.05 391.73v-49.102-71.93-8.3164-1.4766-0.050781c0-0.6875 0.050781-1.3789 0.097656-2.0156-0.050781 0.34375-0.29688 1.3281 0.050781 0 0.14844-0.64062 0.34375-1.2773 0.54297-1.918 0.050781-0.29688 0.54297-1.3281-0.050781-0.050781 0.54297-1.1797 1.1797-2.3125 1.918-3.2969-0.83594 1.082-0.14844 0.19531 0.050781 0 0.44141-0.44141 0.93359-0.88672 1.3281-1.3281 0.88672-0.93359 0.29688-0.24609 0-0.050781 0.49219-0.39453 1.0312-0.73828 1.625-1.0312 0.39453-0.19531 0.73828-0.39453 1.1328-0.58984 1.6719-0.93359-1.2305 0.24609 0.64062-0.24609 0.44141-0.097656 0.83594-0.24609 1.2773-0.39453 0.44141-0.097656 0.83594-0.19531 1.2773-0.29688-0.88672 0.097656-0.83594 0.097656 0.050781 0 0.73828 0 1.4258-0.050781 2.1172-0.050781h7.2305 70.406c17.418 0 34.883-0.24609 52.348 0 0.58984 0 1.2305 0.050781 1.8203 0.097656 1.2305 0.097656-1.5742-0.49219 0.34375 0.097656 0.54297 0.14844 1.082 0.29688 1.5742 0.44141 0.34375 0.097657 1.6719 0.64063 0.34375 0.050782 0.58984 0.24609 1.1797 0.54297 1.7227 0.88672s1.082 0.6875 1.625 1.0312c-0.29688-0.19531-0.88672-0.88672 0 0.050782 0.44141 0.44141 0.88672 0.93359 1.3281 1.3281 0.19531 0.19531 0.88672 1.082 0.050782 0 0.64062 0.88672 1.1328 1.8203 1.6719 2.7539 0.93359 1.6719-0.24609-1.2305 0.24609 0.64062 0.14844 0.64062 0.34375 1.2773 0.54297 1.918 0.58984 1.918 0-0.83594 0.097656 0.34375 0.050781 0.58984 0.050781 1.1328 0.097657 1.7227v0.050781 0.39453 1.8203 19.336 73.359 70.16 15.398 2.6562c-0.050782 2.3125-0.14844 4.5742-0.34375 6.8867-0.097657 1.1328-0.19531 2.2617-0.29688 3.3945-0.050781 0.44141-0.097656 0.88672-0.14844 1.3281-0.050781 0.44141-0.29688 2.0664-0.097656 0.73828-1.3281 9.1992-3.6914 18.254-7.1836 26.863-0.14844 0.39453-0.34375 0.78906-0.49219 1.2305 0.64062-1.5234-0.19531 0.49219-0.29688 0.64063-0.44141 0.98437-0.88672 1.9688-1.3789 2.9531-1.0312 2.1641-2.1172 4.2812-3.2461 6.3477-2.0664 3.7891-4.3789 7.4297-6.8867 10.922-0.64062 0.88672-1.2773 1.7227-1.918 2.6094-1.2773 1.7227 0.93359-1.1328-0.44141 0.54297-0.24609 0.34375-0.54297 0.6875-0.78906 0.98437-1.4766 1.8203-3 3.6406-4.625 5.3633-3.0508 3.3438-6.25 6.4961-9.6445 9.4453-1.625 1.4258-3.2969 2.8047-4.9688 4.082 1.1797-0.93359-1.2305 0.93359-1.5742 1.1797-0.93359 0.6875-1.918 1.3789-2.9023 2.0156-3.6406 2.5078-7.4766 4.7734-11.367 6.8398-1.918 0.98438-3.8867 1.9688-5.8555 2.8555-0.58984 0.24609-1.1797 0.54297-1.7695 0.78906-0.24609 0.097656-1.3281 0.54297-0.050781 0-1.2305 0.49219-2.4102 0.98438-3.6406 1.4258-4.3281 1.625-8.7578 3-13.234 4.082-2.1641 0.54297-4.3281 0.98437-6.543 1.3789-1.082 0.19531-2.2148 0.39453-3.2969 0.54297-0.44141 0.050782-0.88672 0.14844-1.3281 0.19531 1.6719-0.24609-0.54297 0.050781-0.73828 0.097656-4.5273 0.54297-9.1016 0.78906-13.676 0.78906 2.4609 2.4609 4.9219 4.9219 7.3789 7.3789v-59.336-8.5625c-2.4609 2.4609-4.9219 4.9219-7.3789 7.3789 21.895-0.19531 42.312-13.234 50.973-33.457 5.4609-12.84 4.625-26.223 4.625-39.852v-13.777c0-3.9844-3.3945-7.3789-7.3789-7.3789h-34.934-44.527-1.918-0.29688c-0.6875 0-1.3789-0.050781-2.0156-0.097656 1.4766 0.14844-0.83594-0.24609-1.2773-0.39453-0.39453-0.097657-0.83594-0.24609-1.2305-0.39453 0.6875 0.24609 0.58984 0.29688 0-0.050781-0.73828-0.39453-1.4766-0.83594-2.2148-1.2773-0.097656-0.050781-0.93359-0.6875-0.29688-0.19531 0.73828 0.58984-0.58984-0.54297-0.6875-0.6875-0.29688-0.29688-1.8203-2.0664-0.93359-0.88672-0.44141-0.58984-0.83594-1.2305-1.2305-1.8711-0.19531-0.39453-0.39453-0.73828-0.58984-1.1328-0.49219-0.98438 0.34375 1.0312 0-0.050782-0.24609-0.83594-0.49219-1.6719-0.6875-2.5078-0.19531-0.83594 0 0.19531 0 0.29688-0.10547-0.6875-0.15234-1.375-0.15234-2.0625-0.050781-3.8359-3.3438-7.5781-7.3789-7.3789-3.9375 0.19531-7.4766 3.2461-7.3789 7.3789 0.24609 14.465 11.855 25.93 26.273 26.074 4.6758 0.050781 9.2969 0 13.973 0h53.332 14.168c-2.4609-2.4609-4.9219-4.9219-7.3789-7.3789v27.109 4.2305c0 1.2773-0.050781 2.5078-0.14844 3.7891-0.14844 2.0156-0.39453 3.543-1.0312 6.1992-2.1172 8.4609-6.4453 15.449-13.234 21.352-1.3789 1.2305-1.0312 0.93359-2.3633 1.8711-1.0312 0.73828-2.1172 1.4258-3.1992 2.0664-1.082 0.64062-2.2148 1.2305-3.3438 1.8203-0.44141 0.24609-0.93359 0.44141-1.3789 0.64062-2.1641 0.98438 1.1797-0.34375-1.082 0.44141-2.4609 0.83594-4.9219 1.625-7.4766 2.1172-0.64063 0.14844-1.2773 0.24609-1.918 0.34375-0.54297 0.097656-0.54297 0.097656 0 0-0.39453 0.050782-0.78906 0.097656-1.1797 0.097656-1.4766 0.14844-2.9531 0.19531-4.4297 0.19531-3.9844 0.050781-7.3789 3.3438-7.3789 7.3789v59.336 8.5625c0 3.9844 3.3945 7.3789 7.3789 7.3789 39.559-0.097656 76.652-19.285 100.02-51.07 11.07-15.055 18.648-32.965 21.648-51.414 1.4258-8.707 1.8203-17.418 1.8203-26.223v-60.516-79.703-27.059c0-5.8555 0.49219-12.102-1.6719-17.664-3.9844-10.184-13.48-16.828-24.453-16.973h-4.7734-28.043-77.836c-6.543 0-13.086-0.050781-19.68 0-15.055 0.050781-26.566 12.004-26.566 26.961-0.050782 19.73 0 39.457 0 59.188v66.961 3.8359c0 3.8359 3.3945 7.5781 7.3789 7.3789 3.9336-0.14453 7.3281-3.1953 7.3281-7.3281z"></path>
 </g>

      </g>
      </svg>